<?xml version="1.0" encoding="UTF-8"?>
<svg xmlns="http://www.w3.org/2000/svg" xmlns:xlink="http://www.w3.org/1999/xlink" width="26px" height="26px" viewBox="0 0 12 12" version="1.1">
<g id="surface1">
<rect x="0" y="0" width="12" height="12" style="fill:rgb(97.254902%,97.254902%,97.254902%);fill-opacity:1;stroke:none;"/>
<path style="fill:none;stroke-width:2;stroke-linecap:round;stroke-linejoin:round;stroke:rgb(20%,20%,20%);stroke-opacity:0.4;stroke-miterlimit:4;" d="M 14 14.757812 L 14 3.5 C 14 2.117188 12.882812 1 11.5 1 C 10.117188 1 9 2.117188 9 3.5 L 9 14.757812 C 7.351562 15.859375 6.617188 17.914062 7.195312 19.804688 C 7.765625 21.703125 9.515625 23 11.5 23 C 13.484375 23 15.234375 21.703125 15.804688 19.804688 C 16.382812 17.914062 15.648438 15.859375 14 14.757812 Z M 14 14.757812 " transform="matrix(0.5,0,0,0.5,0,0)"/>
<path style=" stroke:none;fill-rule:nonzero;fill:rgb(20%,20%,20%);fill-opacity:0.101961;" d="M 7.5 9.25 C 7.5 10.214844 6.714844 11 5.75 11 C 4.785156 11 4 10.214844 4 9.25 C 4 8.285156 4.785156 7.5 5.75 7.5 C 6.714844 7.5 7.5 8.285156 7.5 9.25 Z M 7.5 9.25 "/>
</g>
</svg>
