<?xml version="1.0" encoding="UTF-8"?>
<svg xmlns="http://www.w3.org/2000/svg" xmlns:xlink="http://www.w3.org/1999/xlink" width="26px" height="26px" viewBox="0 0 12 12" version="1.1">
<g id="surface1">
<rect x="0" y="0" width="12" height="12" style="fill:rgb(97.254902%,97.254902%,97.254902%);fill-opacity:1;stroke:none;"/>
<path style="fill:none;stroke-width:2;stroke-linecap:round;stroke-linejoin:round;stroke:rgb(96.078431%,65.098039%,13.72549%);stroke-opacity:1;stroke-miterlimit:4;" d="M 16 11 C 16 13.757812 13.757812 16 11 16 C 8.242188 16 6 13.757812 6 11 C 6 8.242188 8.242188 6 11 6 C 13.757812 6 16 8.242188 16 11 Z M 16 11 " transform="matrix(0.5,0,0,0.5,0.5,0.5)"/>
<path style="fill:none;stroke-width:2;stroke-linecap:round;stroke-linejoin:round;stroke:rgb(100%,85.098039%,24.313725%);stroke-opacity:1;stroke-miterlimit:4;" d="M 11 0 L 11 2 " transform="matrix(0.5,0,0,0.5,0.5,0.5)"/>
<path style="fill:none;stroke-width:2;stroke-linecap:round;stroke-linejoin:round;stroke:rgb(100%,85.098039%,24.313725%);stroke-opacity:1;stroke-miterlimit:4;" d="M 11 20 L 11 22 " transform="matrix(0.5,0,0,0.5,0.5,0.5)"/>
<path style="fill:none;stroke-width:2;stroke-linecap:round;stroke-linejoin:round;stroke:rgb(100%,85.098039%,24.313725%);stroke-opacity:1;stroke-miterlimit:4;" d="M 3.21875 3.21875 L 4.640625 4.640625 " transform="matrix(0.5,0,0,0.5,0.5,0.5)"/>
<path style="fill:none;stroke-width:2;stroke-linecap:round;stroke-linejoin:round;stroke:rgb(100%,85.098039%,24.313725%);stroke-opacity:1;stroke-miterlimit:4;" d="M 17.359375 17.359375 L 18.78125 18.78125 " transform="matrix(0.5,0,0,0.5,0.5,0.5)"/>
<path style="fill:none;stroke-width:2;stroke-linecap:round;stroke-linejoin:round;stroke:rgb(100%,85.098039%,24.313725%);stroke-opacity:1;stroke-miterlimit:4;" d="M 0 11 L 2 11 " transform="matrix(0.5,0,0,0.5,0.5,0.5)"/>
<path style="fill:none;stroke-width:2;stroke-linecap:round;stroke-linejoin:round;stroke:rgb(100%,85.098039%,24.313725%);stroke-opacity:1;stroke-miterlimit:4;" d="M 20 11 L 22 11 " transform="matrix(0.5,0,0,0.5,0.5,0.5)"/>
<path style="fill:none;stroke-width:2;stroke-linecap:round;stroke-linejoin:round;stroke:rgb(100%,85.098039%,24.313725%);stroke-opacity:1;stroke-miterlimit:4;" d="M 3.21875 18.78125 L 4.640625 17.359375 " transform="matrix(0.5,0,0,0.5,0.5,0.5)"/>
<path style="fill:none;stroke-width:2;stroke-linecap:round;stroke-linejoin:round;stroke:rgb(100%,85.098039%,24.313725%);stroke-opacity:1;stroke-miterlimit:4;" d="M 17.359375 4.640625 L 18.78125 3.21875 " transform="matrix(0.5,0,0,0.5,0.5,0.5)"/>
</g>
</svg>
