<?xml version="1.0" encoding="UTF-8"?>
<svg xmlns="http://www.w3.org/2000/svg" xmlns:xlink="http://www.w3.org/1999/xlink" width="26px" height="26px" viewBox="0 0 8 7" version="1.1">
<g id="surface1">
<path style=" stroke:none;fill-rule:evenodd;fill:rgb(20%,20%,20%);fill-opacity:1;" d="M 0 0.664062 C 0 0.390625 0.222656 0.167969 0.5 0.167969 L 7.5 0.167969 C 7.777344 0.167969 8 0.386719 8 0.664062 L 8 1.003906 C 8 1.277344 7.777344 1.5 7.5 1.5 L 0.5 1.5 C 0.222656 1.5 0 1.28125 0 1.003906 Z M 0 3.328125 C 0 3.054688 0.222656 2.832031 0.5 2.832031 L 7.5 2.832031 C 7.777344 2.832031 8 3.054688 8 3.328125 L 8 3.671875 C 8 3.945312 7.777344 4.167969 7.5 4.167969 L 0.5 4.167969 C 0.222656 4.167969 0 3.945312 0 3.671875 Z M 0 5.996094 C 0 5.722656 0.222656 5.5 0.5 5.5 L 7.5 5.5 C 7.777344 5.5 8 5.71875 8 5.996094 L 8 6.335938 C 8 6.609375 7.777344 6.832031 7.5 6.832031 L 0.5 6.832031 C 0.222656 6.832031 0 6.613281 0 6.335938 Z M 0 5.996094 "/>
</g>
</svg>
