<?xml version="1.0" encoding="UTF-8"?>
<svg xmlns="http://www.w3.org/2000/svg" xmlns:xlink="http://www.w3.org/1999/xlink" width="26px" height="26px" viewBox="0 0 12 12" version="1.1">
<g id="surface1">
<rect x="0" y="0" width="12" height="12" style="fill:rgb(97.254902%,97.254902%,97.254902%);fill-opacity:1;stroke:none;"/>
<path style="fill:none;stroke-width:2;stroke-linecap:round;stroke-linejoin:round;stroke:rgb(96.078431%,65.098039%,13.72549%);stroke-opacity:1;stroke-miterlimit:4;" d="M 7 13.757812 L 7 2.5 C 7 1.117188 5.882812 0 4.5 0 C 3.117188 0 2 1.117188 2 2.5 L 2 13.757812 C 0.351562 14.859375 -0.382812 16.914062 0.195312 18.804688 C 0.765625 20.703125 2.515625 22 4.5 22 C 6.484375 22 8.234375 20.703125 8.804688 18.804688 C 9.382812 16.914062 8.648438 14.859375 7 13.757812 Z M 7 13.757812 " transform="matrix(0.5,0,0,0.5,3.5,0.5)"/>
<path style=" stroke:none;fill-rule:nonzero;fill:rgb(100%,85.098039%,24.313725%);fill-opacity:1;" d="M 7.5 9.25 C 7.5 10.214844 6.714844 11 5.75 11 C 4.785156 11 4 10.214844 4 9.25 C 4 8.285156 4.785156 7.5 5.75 7.5 C 6.714844 7.5 7.5 8.285156 7.5 9.25 Z M 7.5 9.25 "/>
</g>
</svg>
