<?xml version="1.0" encoding="UTF-8"?>
<svg xmlns="http://www.w3.org/2000/svg" xmlns:xlink="http://www.w3.org/1999/xlink" width="26px" height="26px" viewBox="0 0 56 19" version="1.1">
<g id="surface1">
<path style=" stroke:none;fill-rule:nonzero;fill:rgb(100%,0%,0%);fill-opacity:1;" d="M 4.632812 10.714844 L 4.632812 15.054688 L 5.84375 15.054688 L 5.84375 3.726562 L 4.039062 3.726562 C 2.261719 3.726562 0.769531 4.914062 0.769531 7.289062 C 0.769531 8.984375 1.425781 9.90625 2.417969 10.414062 L 0.3125 15.054688 L 1.714844 15.054688 L 3.628906 10.714844 Z M 4.632812 9.699219 L 3.988281 9.699219 C 2.9375 9.699219 2.070312 9.113281 2.070312 7.289062 C 2.070312 5.40625 3.019531 4.753906 3.988281 4.753906 L 4.632812 4.753906 Z M 4.632812 9.699219 "/>
<path style=" stroke:none;fill-rule:nonzero;fill:rgb(0%,0%,0%);fill-opacity:1;" d="M 17.96875 14.046875 L 17.34375 14.046875 L 17.34375 7.070312 L 13.667969 7.070312 L 13.667969 7.75 C 13.667969 9.875 13.589844 12.34375 12.863281 14.046875 L 12.378906 14.046875 L 12.378906 16.625 L 13.480469 16.625 L 13.480469 15.054688 L 16.875 15.054688 L 16.875 16.625 L 17.96875 16.625 Z M 23.296875 14.519531 L 23.015625 13.570312 C 22.703125 13.789062 22.152344 14.105469 21.457031 14.105469 C 20.488281 14.105469 19.980469 13.15625 19.980469 11.351562 L 23.28125 11.351562 L 23.28125 10.664062 C 23.28125 7.953125 22.417969 6.960938 21.097656 6.960938 C 19.417969 6.960938 18.707031 8.828125 18.707031 11.394531 C 18.707031 13.855469 19.714844 15.171875 21.347656 15.171875 C 22.136719 15.171875 22.796875 14.914062 23.296875 14.519531 Z M 10.460938 7.070312 L 10.460938 10.460938 L 8.636719 10.460938 L 8.636719 7.070312 L 7.414062 7.070312 L 7.414062 15.054688 L 8.636719 15.054688 L 8.636719 11.476562 L 10.460938 11.476562 L 10.460938 15.054688 L 11.671875 15.054688 L 11.671875 7.070312 Z M 27.851562 15.054688 L 29.1875 15.054688 L 26.945312 10.824219 L 28.90625 7.070312 L 27.664062 7.070312 L 25.765625 10.761719 L 25.765625 7.070312 L 24.539062 7.070312 L 24.539062 15.054688 L 25.765625 15.054688 L 25.765625 11.078125 Z M 32.0625 15.171875 C 32.789062 15.171875 33.289062 14.929688 33.714844 14.566406 L 33.429688 13.644531 C 33.148438 13.898438 32.691406 14.140625 32.09375 14.140625 C 31.105469 14.140625 30.632812 12.996094 30.632812 11 C 30.632812 8.984375 31.261719 7.988281 32.144531 7.988281 C 32.644531 7.988281 33.113281 8.261719 33.445312 8.546875 L 33.621094 7.371094 C 33.273438 7.148438 32.867188 6.960938 32.15625 6.960938 C 30.304688 6.960938 29.347656 8.558594 29.347656 11.066406 C 29.347656 13.789062 30.367188 15.171875 32.0625 15.171875 Z M 16.136719 14.046875 L 14.03125 14.046875 C 14.6875 12.34375 14.769531 9.890625 14.769531 8.210938 L 14.769531 8.070312 L 16.136719 8.070312 Z M 21.097656 7.976562 C 21.804688 7.976562 22.023438 8.96875 22.023438 10.335938 L 19.996094 10.335938 C 20.074219 8.910156 20.34375 7.976562 21.097656 7.976562 Z M 41.441406 14.410156 L 37.941406 14.410156 C 38.363281 13.886719 38.613281 12.761719 38.753906 11.066406 C 38.882812 9.429688 38.960938 7.246094 39.007812 4.375 L 41.441406 4.375 Z M 42.386719 16.945312 L 42.996094 16.945312 L 42.996094 14.410156 L 42.226562 14.410156 L 42.226562 3.726562 L 38.296875 3.726562 C 38.253906 6.878906 38.203125 9.386719 38.050781 11.066406 C 37.890625 12.679688 37.625 13.949219 37.074219 14.410156 L 36.746094 14.410156 L 36.746094 16.945312 L 37.355469 16.945312 L 37.464844 15.054688 L 42.273438 15.054688 Z M 46.203125 15.214844 C 47.570312 15.214844 48.621094 13.664062 48.621094 11.015625 C 48.621094 8.273438 47.570312 6.910156 46.203125 6.910156 C 44.835938 6.910156 43.785156 8.449219 43.785156 11.109375 C 43.785156 13.835938 44.835938 15.214844 46.203125 15.214844 Z M 46.203125 14.613281 C 45.277344 14.613281 44.523438 13.550781 44.523438 11.066406 C 44.523438 8.640625 45.277344 7.53125 46.203125 7.53125 C 47.128906 7.53125 47.882812 8.558594 47.882812 11.066406 C 47.882812 13.476562 47.128906 14.613281 46.203125 14.613281 Z M 52.175781 14.105469 L 52.785156 14.105469 L 54.101562 9.414062 C 54.214844 9.035156 54.277344 8.671875 54.355469 8.226562 L 54.417969 8.226562 C 54.390625 8.671875 54.355469 9.101562 54.355469 9.636719 L 54.355469 15.054688 L 55.0625 15.054688 L 55.0625 7.070312 L 54.214844 7.070312 L 52.796875 11.949219 C 52.644531 12.519531 52.582031 12.886719 52.53125 13.300781 L 52.472656 13.300781 C 52.421875 12.886719 52.378906 12.519531 52.21875 11.949219 L 50.835938 7.070312 L 49.972656 7.070312 L 49.972656 15.054688 L 50.601562 15.054688 L 50.601562 9.636719 C 50.601562 9.066406 50.554688 8.671875 50.523438 8.238281 L 50.582031 8.238281 C 50.675781 8.640625 50.726562 8.984375 50.851562 9.414062 Z M 52.175781 14.105469 "/>
</g>
</svg>
